<svg width="26" height="24" viewBox="0 0 26 24" fill="none" xmlns="http://www.w3.org/2000/svg">
<path fill-rule="evenodd" clip-rule="evenodd" d="M25.0239 8.28644C25.4084 7.61124 25.1521 6.81329 24.5113 6.44501L12.5928 0L9.13257 1.84143V4.97186L12.5928 3.06905L23.1016 8.77749C23.8064 9.20715 24.6394 8.96162 25.0239 8.28644ZM0.674261 6.44501L6.50536 3.31457V6.44501L2.08397 8.83886C1.4432 9.20715 0.610182 8.96162 0.225715 8.34781C-0.222832 7.67263 0.0334805 6.81329 0.674261 6.44501ZM10.4782 10.4962H14.6433C15.1559 10.4962 15.5403 10.8644 15.5403 11.3555V15.3453C15.5403 15.8363 15.1559 16.2046 14.6433 16.2046H10.4782C9.96558 16.2046 9.58109 15.8363 9.58109 15.3453V11.3555C9.58109 10.8644 9.96558 10.4962 10.4782 10.4962ZM19.8977 9.69819C20.6025 9.69819 21.1792 10.2507 21.1792 10.9258V22.5882C21.1792 23.2634 20.6025 23.8159 19.8977 23.8159H5.15973C4.45486 23.8159 3.87817 23.2634 3.87817 22.5882V10.9258C3.87817 10.2507 4.45486 9.69819 5.15973 9.69819C5.86459 9.69819 6.44129 10.2507 6.44129 10.9258V21.3606H18.6161V10.9258C18.6161 10.2507 19.1928 9.69819 19.8977 9.69819Z" fill="#161616"/>
<path d="M10.9267 11.3555H14.3229C14.5151 11.3555 14.7073 11.5397 14.7073 11.7238V14.977C14.7073 15.1611 14.5151 15.3453 14.3229 15.3453H10.9267C10.7345 15.3453 10.5422 15.1611 10.5422 14.977V11.7238C10.5422 11.5397 10.6704 11.3555 10.9267 11.3555Z" fill="#FFE03D"/>
</svg>
