<svg width="33" height="17" viewBox="0 0 33 17" fill="none" xmlns="http://www.w3.org/2000/svg">
<path fill-rule="evenodd" clip-rule="evenodd" d="M9.15518 0.18158H31.0696C32.1592 0.18158 32.9925 1.04091 32.9925 2.02301V15.0972C32.9925 16.1406 32.0949 16.9386 31.0696 16.9386H9.15518C8.06556 16.9386 7.23321 16.0792 7.23321 15.0972V2.02301C7.23321 1.04091 8.12988 0.18158 9.15518 0.18158ZM2.42734 13.3172C3.38832 13.3172 4.22067 14.0537 4.22067 15.0358C4.22067 15.9565 3.45264 16.7545 2.42734 16.7545C1.46541 16.7545 0.633057 16.0178 0.633057 15.0358C0.633057 14.0537 1.40204 13.3172 2.42734 13.3172Z" fill="#FF681D"/>
<path fill-rule="evenodd" clip-rule="evenodd" d="M17.5011 3.06686C17.9715 2.59649 18.7341 2.59649 19.2045 3.06686C19.6748 3.53723 19.6748 4.29985 19.2045 4.77022L15.7071 8.26758L20.0519 12.6124C20.5223 13.0827 20.5223 13.8454 20.0519 14.3157C19.5815 14.7861 18.8189 14.7861 18.3485 14.3157L13.2654 9.23259V13.3791C13.2654 14.0911 12.6882 14.6682 11.9763 14.6682C11.2644 14.6682 10.6873 14.0911 10.6873 13.3791V4.01687C10.6873 3.30494 11.2644 2.72781 11.9763 2.72781C12.6882 2.72781 13.2654 3.30494 13.2654 4.01687V7.30258L17.5011 3.06686ZM29.675 3.9925C29.675 3.37131 29.1715 2.86774 28.5503 2.86774L21.8293 2.86773C21.2081 2.86773 20.7046 3.37131 20.7046 3.9925C20.7046 4.61369 21.2081 5.11726 21.8293 5.11726L26.4104 5.11726L20.7896 12.6812C20.6389 12.884 20.5649 13.12 20.5623 13.3546C20.5597 13.386 20.5583 13.4177 20.5583 13.4497C20.5583 14.0709 21.0619 14.5744 21.6831 14.5744H28.8931C29.5142 14.5744 30.0178 14.0709 30.0178 13.4497C30.0178 12.8285 29.5142 12.3249 28.8931 12.3249L23.9241 12.3249L29.4536 4.88372C29.6363 4.63797 29.7063 4.34335 29.673 4.06154C29.6743 4.0387 29.675 4.01568 29.675 3.9925Z" fill="white"/>
</svg>
