<svg width="146" height="18" viewBox="0 0 146 18" fill="none" xmlns="http://www.w3.org/2000/svg">
<g clip-path="url(#clip0)">
<path fill-rule="evenodd" clip-rule="evenodd" d="M120.63 16.4041C118.964 17.4475 116.978 18 114.992 18C114.094 18 113.133 17.8158 112.236 17.5089C111.467 17.2634 110.699 16.8338 110.057 16.3427C109.481 15.8516 108.969 15.2378 108.584 14.5626C108.2 13.8874 107.943 13.0895 107.879 12.2915C107.815 11.3708 107.815 10.4501 108.007 9.59072C108.392 7.74934 109.288 6.03063 110.57 4.61886C111.211 3.94371 111.916 3.3299 112.749 2.83884C114.415 1.79537 116.401 1.24294 118.387 1.24294C119.285 1.24294 120.246 1.3657 121.143 1.67261C121.912 1.91813 122.681 2.28642 123.322 2.83884C123.899 3.3299 124.411 4.00509 124.795 4.68024C125.179 5.35549 125.372 6.1534 125.5 6.95142C125.564 7.81072 125.564 8.73141 125.372 9.59072C125.179 10.5729 124.86 11.4322 124.411 12.2915C123.578 14.0102 122.232 15.422 120.63 16.4041ZM115.632 14.8695C114.927 14.8695 114.223 14.7467 113.581 14.4398C113.069 14.1944 112.62 13.7647 112.3 13.2736C111.98 12.7826 111.787 12.1687 111.724 11.6164C111.66 10.9411 111.659 10.266 111.852 9.65211C111.98 8.97696 112.236 8.30171 112.556 7.68795C112.877 7.0741 113.262 6.52172 113.774 6.03063C114.287 5.53964 114.863 5.17133 115.504 4.8644C116.209 4.55747 116.914 4.43479 117.683 4.43479C118.387 4.43479 119.093 4.55747 119.669 4.8644C120.182 5.10994 120.63 5.53964 120.951 6.03063C121.271 6.52172 121.463 7.13548 121.528 7.68795C121.592 8.3631 121.592 9.03834 121.463 9.65211C121.336 10.3273 121.079 11.0025 120.759 11.6164C120.438 12.2301 120.054 12.7826 119.541 13.2736C118.516 14.3171 117.106 14.8695 115.632 14.8695ZM96.5372 4.80301H98.8442C99.6131 4.80301 100.318 4.92578 101.022 5.17133C101.599 5.41687 102.048 5.7238 102.368 6.21479C102.688 6.70588 102.881 7.25825 102.944 7.81072C103.009 8.48587 103.009 9.16112 102.817 9.83626C102.688 10.5115 102.496 11.1253 102.175 11.7391C101.856 12.2915 101.471 12.844 101.022 13.2736C100.51 13.7033 99.9328 14.0716 99.3568 14.3171C98.6512 14.5626 97.8822 14.6854 97.1776 14.6854H94.6143L96.5372 4.80301ZM124.218 15.8516C124.218 15.8823 124.202 15.913 124.186 15.9437C124.17 15.9744 124.155 16.0051 124.155 16.0357C124.155 16.0971 124.155 16.1585 124.091 16.2199C124.026 16.5268 124.026 16.8338 124.155 17.0792C124.283 17.3248 124.475 17.5089 124.668 17.6317C124.923 17.7545 125.244 17.8158 125.564 17.8158C125.948 17.8158 126.333 17.7545 126.654 17.6317C126.91 17.5089 127.167 17.3248 127.359 17.0792C127.551 16.8338 127.743 16.5268 127.871 16.2199L131.204 7.01271H131.267L132.421 16.5268C132.421 16.711 132.485 16.9564 132.613 17.1406C132.742 17.3861 132.934 17.5089 133.126 17.6317C133.446 17.8158 133.83 17.8772 134.151 17.8772C134.535 17.8772 134.92 17.8158 135.304 17.6317C135.56 17.5089 135.817 17.3248 136.073 17.1406C136.266 16.9564 136.393 16.7724 136.522 16.5268L141.456 7.01271H141.52L141.199 16.2199C141.199 16.5268 141.199 16.8338 141.328 17.0792C141.456 17.3248 141.584 17.5089 141.841 17.6317C142.481 17.8772 143.186 17.8772 143.827 17.6317C144.147 17.5089 144.403 17.3248 144.596 17.0792C144.788 16.8338 144.98 16.5268 145.044 16.2199C145.044 16.1585 145.044 16.0971 145.109 16.0357V15.8516L145.236 3.20713C145.236 3.02299 145.172 2.77746 145.109 2.59332C145.08 2.55336 145.053 2.51051 145.024 2.46665C144.921 2.3084 144.811 2.13701 144.659 2.04089C144.467 1.85675 144.211 1.73398 143.955 1.61122C143.698 1.48846 143.378 1.42708 143.058 1.42708C142.673 1.42708 142.225 1.48846 141.841 1.67261C141.456 1.79537 141.135 2.04089 140.815 2.28642C140.559 2.53194 140.366 2.77746 140.174 3.08436L135.368 12.046H135.304L134.087 3.08436C134.022 2.77746 133.895 2.53194 133.767 2.28642C133.574 2.04089 133.318 1.79537 132.998 1.67261C132.677 1.48846 132.292 1.42708 131.908 1.42708C131.588 1.42708 131.267 1.48846 130.947 1.61122C130.627 1.73398 130.37 1.85675 130.114 2.04089C129.858 2.22499 129.666 2.40909 129.474 2.59319L129.473 2.59332C129.281 2.77746 129.153 2.9616 129.089 3.20713L124.218 15.8516ZM90.5141 16.8338C90.4497 16.5882 90.4497 16.2813 90.5141 16.0357L92.8844 3.3299C92.9487 3.02299 93.1407 2.6547 93.3327 2.40918C93.589 2.16365 93.8453 1.91813 94.166 1.79537C94.551 1.61122 94.8706 1.54984 95.2556 1.54984H99.4845C100.702 1.54984 101.983 1.73398 103.137 2.16365C105.124 2.83884 106.533 4.49618 106.854 6.46033C107.046 7.62657 107.046 8.7928 106.789 9.89765C106.533 11.0639 106.149 12.1687 105.508 13.1508C104.932 14.0716 104.163 14.9309 103.265 15.6061C102.304 16.3427 101.279 16.8338 100.189 17.202C99.0362 17.5703 97.7546 17.7545 96.5372 17.7545H92.1154C91.9234 17.7545 91.667 17.7545 91.475 17.6931C91.283 17.6317 91.0901 17.5089 90.8981 17.3861C90.7061 17.202 90.5774 17.0178 90.5141 16.8338Z" fill="#161616"/>
<path fill-rule="evenodd" clip-rule="evenodd" d="M81.6713 14.8081C80.9023 14.8081 80.1967 14.6854 79.5563 14.3785C78.9794 14.133 78.4667 13.7033 78.0827 13.2122C77.6978 12.7212 77.3781 12.1687 77.1851 11.555C76.9931 10.9411 76.9288 10.266 76.9288 9.59072C76.9288 8.91557 77.0574 8.24032 77.2494 7.62656C77.4414 7.0127 77.7621 6.46033 78.147 5.96924C78.531 5.47825 79.0437 5.10994 79.6207 4.80301C80.1967 4.49608 80.9023 4.3734 81.6713 4.3734C82.4402 4.3734 83.1449 4.49608 83.7219 4.80301C84.2979 5.10994 84.8106 5.47825 85.1955 5.96924C85.5795 6.46033 85.9002 7.0127 86.0922 7.62656C86.2842 8.24032 86.4128 8.91557 86.4128 9.59072C86.4128 10.266 86.2842 10.9411 86.1565 11.555C85.9645 12.1687 85.6438 12.7212 85.2589 13.2122C84.8749 13.7033 84.3622 14.0716 83.7852 14.3785C83.2092 14.6854 82.5036 14.8081 81.6713 14.8081ZM56.3601 16.0357C56.3601 16.4041 56.4242 16.711 56.6164 17.0178C56.7445 17.2634 57.0008 17.4475 57.2572 17.6317C57.5135 17.7544 57.8339 17.8158 58.2183 17.8158C58.6028 17.8158 58.9232 17.7544 59.1795 17.6317C59.4358 17.5089 59.6922 17.3247 59.8203 17.0178C60.0125 16.7724 60.0767 16.4041 60.0767 16.0357V7.62656H60.1407L68.086 17.0178C68.2147 17.1406 68.3423 17.2634 68.5353 17.3861C68.7273 17.5089 68.9193 17.5703 69.1113 17.6317C69.3043 17.6931 69.4963 17.7544 69.624 17.7544C70.0089 17.7544 70.3286 17.6931 70.585 17.5703C70.8413 17.4475 71.0976 17.2634 71.2262 16.9564C71.4182 16.711 71.4826 16.3427 71.4826 15.9744V3.20712C71.4826 2.83884 71.4182 2.53194 71.2262 2.22503C71.0342 1.9795 70.8413 1.79536 70.585 1.61122C70.3286 1.48845 70.0089 1.42708 69.624 1.42708C69.24 1.42708 68.9193 1.48845 68.663 1.61122C68.4067 1.73398 68.1503 1.91813 68.0226 2.22503C67.894 2.47055 67.7663 2.83884 67.7663 3.20712V11.7391H67.702L59.7562 2.16365C59.628 2.04089 59.4999 1.91813 59.3077 1.79536C59.1155 1.6726 58.9232 1.61122 58.731 1.54984C58.5387 1.48845 58.3465 1.42708 58.1543 1.42708C57.7698 1.42708 57.4495 1.48845 57.1931 1.61122C56.9368 1.73398 56.6805 1.91813 56.5523 2.22503C56.3601 2.47055 56.296 2.83884 56.296 3.20712V16.0357H56.3601ZM39.9561 16.0357C39.9561 16.4041 40.0202 16.711 40.2125 17.0178C40.4047 17.2634 40.5969 17.4475 40.8532 17.6317C41.1095 17.7544 41.4299 17.8158 41.8144 17.8158C42.1988 17.8158 42.5192 17.7544 42.7755 17.6317C43.0319 17.5089 43.2882 17.3247 43.4163 17.0178C43.6085 16.7724 43.6727 16.4041 43.6727 16.0357V11.1253H50.5931V16.0357C50.5931 16.4041 50.6571 16.711 50.8494 17.0178C50.9776 17.2634 51.2338 17.4475 51.4901 17.6317C51.7465 17.7544 52.0668 17.8158 52.4513 17.8158C52.8358 17.8158 53.1561 17.7544 53.4125 17.6317C53.6688 17.5089 53.9251 17.3247 54.0533 17.0178C54.2455 16.7724 54.3096 16.4041 54.3096 16.0357V3.20712C54.3096 2.83884 54.2455 2.53194 54.0533 2.22503C53.8611 1.9795 53.6688 1.79536 53.4125 1.61122C53.1561 1.48845 52.8358 1.42708 52.4513 1.42708C52.0668 1.42708 51.7465 1.48845 51.4901 1.61122C51.2338 1.73398 50.9776 1.91813 50.8494 2.22503C50.6571 2.47055 50.5931 2.83884 50.5931 3.20712V7.99488H43.7367V3.20712C43.7367 2.83884 43.6727 2.53194 43.4804 2.22503C43.2882 1.9795 43.0959 1.79536 42.8397 1.61122C42.5833 1.48845 42.2629 1.42708 41.8785 1.42708C41.494 1.42708 41.1735 1.48845 40.9173 1.61122C40.661 1.73398 40.4047 1.91813 40.2765 2.22503C40.0843 2.47055 40.0202 2.83884 40.0202 3.20712L39.9561 16.0357ZM24.7055 9.59072C24.7055 10.5115 24.8337 11.4322 25.09 12.2301C25.3463 13.0895 25.7307 13.826 26.2434 14.5012C26.756 15.1764 27.3327 15.7902 28.0376 16.2813C28.7424 16.7724 29.5754 17.202 30.4084 17.4475C31.3056 17.6931 32.2668 17.8772 33.292 17.8772C33.6124 17.8772 33.9328 17.8772 34.3813 17.8158C34.7658 17.8158 35.2143 17.7544 35.5988 17.6317C36.0473 17.5703 36.4318 17.4475 36.8163 17.3247C37.2008 17.202 37.5852 17.0178 37.9056 16.8338C38.226 16.6496 38.4823 16.4041 38.6745 16.0971C38.8668 15.8516 38.9308 15.4834 38.995 15.1764C38.995 15.0537 38.9308 14.8695 38.8668 14.7467C38.8027 14.5626 38.6745 14.3784 38.5464 14.2557C38.4182 14.0716 38.226 13.9488 38.0338 13.826C37.8415 13.7033 37.5852 13.6419 37.3289 13.6419C37.0726 13.6419 36.8163 13.7033 36.56 13.7647C36.3036 13.8874 36.0473 13.9488 35.727 14.0716C35.4066 14.1944 35.0861 14.3171 34.7017 14.3784C34.3173 14.5012 33.8686 14.5012 33.3561 14.5012C32.5871 14.5012 31.8823 14.3784 31.3056 14.0716C30.7289 13.826 30.2162 13.4577 29.8318 12.9667C29.4473 12.4757 29.1269 11.9846 28.9347 11.3708C28.7424 10.7569 28.6143 10.1432 28.6143 9.46794C28.6143 8.7928 28.7424 8.11765 28.9347 7.50379C29.1269 6.89003 29.4473 6.33756 29.8318 5.84647C30.2162 5.35548 30.7289 4.98717 31.3056 4.74162C31.8823 4.49608 32.5871 4.31202 33.3561 4.31202C33.8686 4.31202 34.3173 4.3734 34.7017 4.43479C35.0861 4.49608 35.4066 4.61885 35.6628 4.68024C35.9192 4.80301 36.1755 4.86439 36.4318 4.92578C36.6881 4.98717 36.9445 5.04855 37.1367 5.04855C37.4571 5.04855 37.7133 4.98717 37.9697 4.86439C38.226 4.74162 38.3542 4.55747 38.4823 4.31202C38.6105 4.06647 38.6745 3.82093 38.6745 3.57539C38.6745 3.26851 38.5464 2.9616 38.4182 2.71607C38.226 2.47055 37.9697 2.22503 37.7133 2.04089C37.393 1.85674 37.0726 1.6726 36.6881 1.54984C36.3036 1.42708 35.9192 1.30432 35.5348 1.24293L34.3813 1.05879C33.9968 0.997406 33.6764 0.997406 33.3561 0.997406C32.3308 0.997406 31.3696 1.12017 30.4726 1.42708C29.5754 1.6726 28.8065 2.10226 28.1017 2.59331C27.3969 3.08436 26.756 3.69816 26.3075 4.3734C25.7949 5.04855 25.4104 5.84647 25.1541 6.64448C24.8337 7.81072 24.7055 8.67002 24.7055 9.59072ZM13.7482 15.9744C13.7482 16.3427 13.8123 16.5882 14.0045 16.895C14.1968 17.1406 14.3889 17.3247 14.7094 17.5089C15.0298 17.6317 15.3501 17.6931 15.6705 17.6931H22.1424C22.5269 17.6931 22.8473 17.6317 23.1035 17.4475C23.3599 17.3247 23.5522 17.0792 23.6803 16.895C23.8085 16.6496 23.8725 16.4041 23.8725 16.1585C23.8725 15.913 23.8085 15.6674 23.6803 15.422C23.5522 15.1764 23.3599 14.9923 23.1035 14.8695C22.8473 14.7467 22.5269 14.624 22.0783 14.624H17.4647V11.1867H21.5657C21.9502 11.1867 22.3347 11.1253 22.591 10.9411C22.8473 10.8183 23.0395 10.5729 23.2317 10.3887C23.3599 10.1432 23.424 9.89765 23.424 9.6521C23.424 9.40665 23.3599 9.16111 23.2317 8.91557C23.1035 8.67002 22.9113 8.48587 22.591 8.3631C22.3347 8.24032 21.9502 8.11765 21.5657 8.11765H17.4647V4.80301H21.9502C22.3347 4.80301 22.655 4.74162 22.9113 4.55746C23.1677 4.43479 23.3599 4.18925 23.488 4.00509C23.6162 3.75955 23.6803 3.514 23.6803 3.26851C23.6803 3.02298 23.6162 2.77746 23.488 2.53194C23.3599 2.28641 23.1677 2.10226 22.9113 1.9795C22.655 1.85674 22.3347 1.73398 21.8861 1.73398H15.6705C15.222 1.73398 14.8375 1.79536 14.5812 1.9795C14.2608 2.16365 14.0686 2.40917 13.9404 2.6547C13.8123 2.9616 13.7482 3.26851 13.7482 3.63677V15.9744ZM4.71318 16.0357C4.71318 16.4041 4.77722 16.711 4.96951 17.0178C5.1617 17.2634 5.35399 17.4475 5.61032 17.6317C5.86655 17.7544 6.18701 17.8158 6.5714 17.8158C6.95589 17.8158 7.27634 17.7544 7.53257 17.6317C7.7889 17.5089 8.04522 17.3247 8.17339 17.0178C8.30155 16.7724 8.42971 16.4041 8.42971 16.0357V4.68024H11.1851C11.5696 4.68024 11.8899 4.61885 12.1462 4.43479C12.4026 4.31202 12.5948 4.06647 12.7229 3.88232C12.8511 3.63677 12.9151 3.39127 12.9151 3.14575C12.9151 2.90022 12.8511 2.6547 12.7229 2.40917C12.5948 2.16365 12.4026 1.9795 12.1462 1.85674C11.8899 1.73398 11.5696 1.61122 11.2491 1.61122H2.02186C1.63746 1.61122 1.38114 1.6726 1.12481 1.85674C0.868486 1.9795 0.67629 2.22503 0.548127 2.40917C0.419964 2.6547 0.355835 2.90022 0.355835 3.14575C0.355835 3.39127 0.419964 3.63677 0.548127 3.88232C0.67629 4.12786 0.868486 4.31202 1.12481 4.43479C1.38114 4.55747 1.7015 4.68024 2.08599 4.68024H4.71318V16.0357ZM81.6713 17.9386C82.6966 17.9386 83.6576 17.8158 84.5542 17.5089C85.4518 17.2634 86.2208 16.8338 86.9255 16.3427C87.6301 15.8516 88.2714 15.2378 88.7198 14.5626C89.2324 13.8874 89.6164 13.0895 89.8727 12.2915C90.1291 11.4322 90.2577 10.5729 90.2577 9.6521C90.2577 8.73141 90.1291 7.8721 89.8727 7.0127C89.6164 6.1534 89.2324 5.41687 88.7198 4.74162C88.2071 4.06647 87.6301 3.45265 86.8612 2.9616C86.1565 2.47055 85.3232 2.04089 84.4899 1.79536C83.5932 1.48845 82.6966 1.36569 81.6713 1.36569C80.646 1.36569 79.684 1.48845 78.7874 1.79536C77.8907 2.04089 77.1217 2.47055 76.4161 2.9616C75.7115 3.45265 75.0711 4.06647 74.6228 4.74162C74.1101 5.41687 73.7252 6.21479 73.4689 7.0127C73.2125 7.8721 73.0848 8.73141 73.0848 9.6521C73.0848 10.5729 73.2125 11.4936 73.4689 12.2915C73.7252 13.1508 74.1101 13.8874 74.6228 14.5626C75.1345 15.2378 75.7115 15.8516 76.4161 16.3427C77.1217 16.8338 77.9541 17.2634 78.7874 17.5089C79.7484 17.7544 80.7093 17.9386 81.6713 17.9386Z" fill="#FF681D"/>
</g>
<defs>
<clipPath id="clip0">
<rect width="144.88" height="17.0026" fill="white" transform="translate(0.355835 0.997406)"/>
</clipPath>
</defs>
</svg>
